<svg width="62" height="20" viewBox="0 0 62 20" fill="none" xmlns="http://www.w3.org/2000/svg">
<path d="M44.3477 19.1468V0.677551H50.9139C52.7709 0.677551 54.3518 0.953587 55.6567 1.50566C56.9616 2.05773 58.0072 2.79382 58.7935 3.71394C59.5965 4.63405 60.182 5.66291 60.5501 6.80051C60.9181 7.93811 61.1021 9.08407 61.1021 10.2384C61.1021 11.6102 60.8512 12.8482 60.3493 13.9523C59.8642 15.0397 59.195 15.9766 58.3418 16.7629C57.4886 17.5324 56.5016 18.1263 55.3807 18.5445C54.2598 18.946 53.072 19.1468 51.8173 19.1468H44.3477ZM47.9863 15.6336H51.19C53.0302 15.6336 54.5108 15.1568 55.6316 14.2033C56.7692 13.2497 57.338 11.8444 57.338 9.98746C57.338 8.78294 57.1373 7.80427 56.7358 7.05145C56.351 6.2819 55.8658 5.68801 55.2803 5.26977C54.7115 4.85154 54.126 4.56714 53.5237 4.41657C52.9215 4.24928 52.4112 4.16563 51.993 4.16563H47.9863V15.6336Z" fill="black"/>
<path d="M36.6204 7.90464H39.9329L37.4987 14.0276L41.313 19.1468H37.0972L35.7422 17.34C35.2403 17.9423 34.5711 18.4442 33.7346 18.8457C32.8982 19.2472 31.886 19.4479 30.6982 19.4479C29.5439 19.4479 28.4983 19.2053 27.5615 18.7202C26.6246 18.235 25.8802 17.5659 25.3281 16.7127C24.776 15.8595 24.5 14.8808 24.5 13.7767C24.5 12.9067 24.7008 12.1121 25.1023 11.3927C25.5205 10.6566 26.0726 10.0293 26.7585 9.51066C27.4444 8.97532 28.1972 8.56545 29.0169 8.28105L28.9667 8.20577C28.7995 7.97156 28.5903 7.6537 28.3394 7.25219C28.0885 6.83396 27.871 6.3739 27.687 5.87202C27.5029 5.35341 27.4109 4.8348 27.4109 4.31618C27.4109 3.64701 27.5782 2.9862 27.9128 2.33375C28.2641 1.66457 28.7911 1.1125 29.4937 0.677539C30.2131 0.225846 31.1165 0 32.2039 0C33.3917 0 34.4373 0.242576 35.3406 0.727728C36.244 1.21288 36.9634 1.79841 37.4987 2.48431L35.6669 4.91844C35.1483 4.34964 34.6464 3.89795 34.1612 3.56336C33.6928 3.22877 33.2327 3.06148 32.7811 3.06148C32.2123 3.06148 31.8024 3.22877 31.5514 3.56336C31.3005 3.89795 31.175 4.266 31.175 4.6675C31.175 4.90171 31.2336 5.16102 31.3507 5.44542C31.4845 5.71309 31.6184 5.96403 31.7522 6.19824C31.886 6.41572 31.978 6.56629 32.0282 6.64993L35.3657 11.1418L36.6204 7.90464ZM28.2641 13.5759C28.2641 14.3455 28.5485 14.9728 29.1173 15.458C29.6861 15.9431 30.3804 16.1857 31.2001 16.1857C31.9028 16.1857 32.4632 16.0519 32.8814 15.7842C33.2997 15.5165 33.6259 15.1903 33.8601 14.8055L30.8739 10.7654C30.1211 10.8323 29.4937 11.1501 28.9918 11.7189C28.5067 12.271 28.2641 12.89 28.2641 13.5759Z" fill="black"/>
<path d="M0 0.80304H4.266L7.90464 11.4931L10.7152 4.44168L9.25972 0.80304H12.8733L17.0138 11.0665L20.1506 0.80304H24.0652L16.9385 19.9498L12.547 9.00881L7.42785 20L0 0.80304Z" fill="black"/>
</svg>
