<svg width="117" height="85" viewBox="0 0 117 85" fill="none" xmlns="http://www.w3.org/2000/svg">
<path opacity="0.3" d="M79.1217 5.96338H70.8203V9.05555H79.1217V5.96338Z" fill="#6C63FF"/>
<path opacity="0.3" d="M92.9186 0.695312H84.6172V3.78748H92.9186V0.695312Z" fill="#6C63FF"/>
<path opacity="0.3" d="M93.4928 10.2578H85.1914V13.35H93.4928V10.2578Z" fill="#6C63FF"/>
<path opacity="0.3" d="M66.9264 13.8081H58.625V16.9003H66.9264V13.8081Z" fill="#6C63FF"/>
<path opacity="0.3" d="M64.2936 26.521H55.9922V29.6132H64.2936V26.521Z" fill="#6C63FF"/>
<path opacity="0.3" d="M76.8327 26.2344H68.5312V29.3265H76.8327V26.2344Z" fill="#6C63FF"/>
<path d="M84.6172 2.22168L79.1211 7.43771L85.1896 11.804" stroke="#3F3D56" stroke-miterlimit="10"/>
<path d="M70.8211 7.43848L62.7773 13.8089" stroke="#3F3D56" stroke-miterlimit="10"/>
<path d="M60.1445 26.5181L62.778 16.9004L72.6825 26.2342" stroke="#3F3D56" stroke-miterlimit="10"/>
<path opacity="0.3" d="M23.1295 9.14893H14.8281V12.2411H23.1295V9.14893Z" fill="#6C63FF"/>
<path opacity="0.3" d="M36.9264 3.88135H28.625V6.97352H36.9264V3.88135Z" fill="#6C63FF"/>
<path opacity="0.3" d="M37.5006 13.4443H29.1992V16.5365H37.5006V13.4443Z" fill="#6C63FF"/>
<path opacity="0.3" d="M10.9342 16.9937H2.63281V20.0858H10.9342V16.9937Z" fill="#6C63FF"/>
<path opacity="0.3" d="M8.3014 29.7065H0V32.7987H8.3014V29.7065Z" fill="#6C63FF"/>
<path opacity="0.3" d="M20.8405 29.4199H12.5391V32.5121H20.8405V29.4199Z" fill="#6C63FF"/>
<path d="M28.625 5.40723L23.1289 10.6233L29.1974 14.9896" stroke="#3F3D56" stroke-miterlimit="10"/>
<path d="M14.8289 10.6235L6.78516 16.994" stroke="#3F3D56" stroke-miterlimit="10"/>
<path d="M4.14844 29.7036L6.78192 20.0859L16.6864 29.4197" stroke="#3F3D56" stroke-miterlimit="10"/>
<path d="M37.5 14.9902H46.9143" stroke="#3F3D56" stroke-miterlimit="10"/>
<path d="M52.4476 13.4072H42.6875V16.49H52.4476V13.4072Z" fill="#6C63FF"/>
<path d="M52.4609 14.9487H58.6263" stroke="#3F3D56" stroke-miterlimit="10"/>
<path d="M42.6398 14.9493L36.9258 5.4082" stroke="#3F3D56" stroke-miterlimit="10"/>
<path d="M70.9938 84.1568C95.9598 84.1568 116.199 79.6482 116.199 74.0865C116.199 68.5248 95.9598 64.0161 70.9938 64.0161C46.0279 64.0161 25.7891 68.5248 25.7891 74.0865C25.7891 79.6482 46.0279 84.1568 70.9938 84.1568Z" fill="#F2F2F2"/>
<path d="M91.951 40.936L87.5429 63.0262H86.5887L86.4837 62.863L86.1797 62.3899L89.9969 41.7541L90.5764 41.5114L91.951 40.936Z" fill="#47465A"/>
<path opacity="0.1" d="M90.5764 41.5117L86.4837 62.8633L86.1797 62.3902L89.9969 41.7544L90.5764 41.5117Z" fill="black"/>
<path d="M98.5837 71.0267L97.4504 71.3921L97.1749 71.4812L96.8113 70.6631L90.5742 42.2058L91.2227 42.0604L92.5851 41.7549L98.5837 71.0267Z" fill="#47465A"/>
<path opacity="0.1" d="M97.4504 71.3923L97.1749 71.4814L96.8113 70.6632L90.5742 42.2059L91.2227 42.0605L97.4504 71.3923Z" fill="black"/>
<path d="M44.5527 40.936L43.553 69.5714L42.4073 69.8259L42.326 69.8441L42.0078 69.2532L42.6441 41.2087L43.2562 41.1214L44.5527 40.936Z" fill="#47465A"/>
<path opacity="0.1" d="M43.2562 41.1221L42.4073 69.8266L42.326 69.8448L42.0078 69.2539L42.6441 41.2093L43.2562 41.1221Z" fill="black"/>
<path d="M50.5036 79.7085L49.3184 79.913L49.1857 79.9357L48.8222 79.1631L43.0508 41.7552L43.2171 41.7047L44.096 41.437L50.5036 79.7085Z" fill="#47465A"/>
<path opacity="0.1" d="M49.3184 79.9129L49.1857 79.9356L48.8222 79.163L43.0508 41.755L43.2171 41.7046L49.3184 79.9129Z" fill="black"/>
<path d="M75.5898 38.6186L80.0026 44.2583C80.1538 44.4515 80.3522 44.6027 80.5787 44.6971C80.8052 44.7916 81.0522 44.8262 81.2959 44.7977L99.4104 42.6757C99.7588 42.6349 100.08 42.4676 100.313 42.2056C100.546 41.9435 100.675 41.605 100.675 41.2542V37.0732L75.5898 38.6186Z" fill="#7A799C"/>
<path d="M90.4492 39.5278H91.6762V41.299C91.6762 41.42 91.6282 41.536 91.5427 41.6215C91.4572 41.707 91.3412 41.755 91.2203 41.755H90.9051C90.7842 41.755 90.6683 41.707 90.5828 41.6215C90.4973 41.536 90.4492 41.42 90.4492 41.299V39.5278Z" fill="#47465A"/>
<path d="M43.0508 42.2095L47.4635 47.8491C47.6147 48.0424 47.8131 48.1935 48.0396 48.288C48.2661 48.3824 48.5131 48.417 48.7568 48.3885L66.8714 46.2665C67.2197 46.2257 67.5409 46.0584 67.774 45.7964C68.0071 45.5343 68.1359 45.1958 68.1359 44.845V40.6641L43.0508 42.2095Z" fill="#7A799C"/>
<path d="M57.9102 43.1187H59.1371V44.8898C59.1371 45.0108 59.0891 45.1268 59.0036 45.2123C58.9181 45.2978 58.8021 45.3458 58.6812 45.3458H58.3661C58.2452 45.3458 58.1292 45.2978 58.0437 45.2123C57.9582 45.1268 57.9102 45.0108 57.9102 44.8898V43.1187H57.9102Z" fill="#47465A"/>
<path d="M48.1197 45.0654L102.002 38.7879C102.171 38.7682 102.329 38.6944 102.453 38.5775C102.577 38.4606 102.66 38.3068 102.69 38.1389C102.72 37.9711 102.695 37.7981 102.618 37.6457C102.542 37.4933 102.419 37.3696 102.266 37.2929L92.6279 32.4445C90.7295 31.4896 88.5979 31.0968 86.4839 31.3124L38.6139 36.1945C38.4427 36.2124 38.2801 36.2781 38.1446 36.3842C38.009 36.4903 37.9061 36.6324 37.8476 36.7943C37.7891 36.9561 37.7773 37.1312 37.8136 37.2995C37.85 37.4677 37.933 37.6223 38.0531 37.7456L43.6276 43.466C44.2045 44.058 44.9093 44.51 45.688 44.7873C46.4667 45.0645 47.2985 45.1597 48.1197 45.0654Z" fill="#47465A"/>
<path d="M107.93 37.9378L107.354 37.6191C107.354 37.6191 106.731 38.0773 106.224 40.0072C105.718 41.9372 107.172 40.0282 107.172 40.0282L107.808 38.71L107.93 37.9378Z" fill="#47465A"/>
<path d="M101.765 55.6181C101.765 55.6181 101.174 58.3907 100.902 59.1634C100.768 59.5416 100.123 59.8875 99.4075 60.152C98.7732 60.3883 98.1167 60.5597 97.4479 60.6634C96.6754 60.7543 86.7686 59.2089 81.9515 58.1635C78.7063 57.4594 78.2869 56.6517 78.3587 56.1999C78.3818 56.0654 78.4463 55.9414 78.5432 55.8453C78.5432 55.8453 83.3148 52.6182 84.9963 51.0728C86.6777 49.5274 89.9951 50.7546 93.6306 51.3909C97.2661 52.0273 101.765 55.6181 101.765 55.6181Z" fill="#47465A"/>
<path d="M107.356 37.6191C107.356 37.6191 109.583 39.0736 102.085 42.0735C102.085 42.0735 98.0093 44.3719 98.5398 53.8397C98.565 54.2655 98.6946 54.6785 98.9172 55.0422C99.6908 56.3149 101.349 59.5366 98.5856 59.9366V60.6638C98.5856 60.6638 103.584 58.1639 104.13 56.0276C104.675 53.8913 106.493 42.0281 107.402 40.9372C108.311 39.8463 108.901 38.1191 107.356 37.6191Z" fill="#47465A"/>
<path opacity="0.1" d="M99.4075 60.1518C98.7733 60.3881 98.1167 60.5595 97.4479 60.6632C96.6754 60.7541 86.7686 59.2087 81.9515 58.1633C78.7063 57.4592 78.2869 56.6515 78.3587 56.1997C80.4918 56.9292 87.4184 59.2446 89.9042 59.436C92.8581 59.6632 98.5013 60.295 98.9289 59.8655C99.0934 59.7 99.262 59.8746 99.4075 60.1518Z" fill="black"/>
<path d="M73.4531 79.0717L77.7703 59.3451C77.7703 59.3451 78.5428 57.2543 80.3152 57.3452L81.9511 58.1633C81.9511 58.1633 79.2245 57.527 78.6337 59.6178C78.043 61.7087 74.2711 79.0717 74.2711 79.0717H73.4531Z" fill="#47465A"/>
<path d="M83.8125 70.0719L85.5393 58.0269H86.3119L84.5396 70.0719H83.8125Z" fill="#47465A"/>
<path d="M100.355 81.8438L98.7188 63.0263C98.7188 63.0263 98.7187 61.4354 99.5367 60.6627C100.355 59.89 102.995 57.6858 102.995 57.6858C102.995 57.6858 103.672 57.5265 104.217 59.0719C104.763 60.6173 108.535 76.0713 108.535 76.0713L107.808 76.3895L103.127 58.5719L99.9003 61.6173C99.9003 61.6173 99.2641 62.7536 99.5822 63.799C99.9003 64.8444 101.082 81.8438 101.082 81.8438H100.355Z" fill="#47465A"/>
<path d="M95.3125 60.209L99.4024 61.3907L100.311 60.5271L97.9483 60.209H95.3125Z" fill="#47465A"/>
<path d="M58.9514 27.0327L59.6146 36.9821L74.1112 35.5731L73.5343 25.847C73.5266 25.7168 73.4929 25.5894 73.4352 25.4723C73.3775 25.3553 73.297 25.251 73.1984 25.1656C73.0998 25.0801 72.9851 25.0153 72.861 24.9749C72.737 24.9345 72.6061 24.9193 72.4761 24.9302L59.8453 25.9928C59.5897 26.0143 59.3528 26.1353 59.1856 26.3298C59.0185 26.5243 58.9343 26.7767 58.9514 27.0327Z" fill="#7A799C"/>
<path d="M78.9728 38.4367L64.5216 40.0135L63.9762 40.073L59.75 37.3459V36.7549L74.1102 35.4614L78.9728 38.4367Z" fill="#7A799C"/>
<path opacity="0.1" d="M64.5216 40.0136L63.9762 40.0731L59.75 37.346V36.8169L64.5216 40.0136Z" fill="black"/>
<path d="M59.9336 26.9374L60.4335 35.8008L73.1578 34.619L72.7033 25.9829L59.9336 26.9374Z" fill="#9493B6"/>
<path opacity="0.1" d="M67.5234 38.2553L69.0685 39.3007L73.7493 38.8461L72.1587 37.8462L67.5234 38.2553Z" fill="black"/>
<path d="M61.207 36.9821L63.1611 38.4366L75.6583 37.2548L73.4315 35.8003L61.207 36.9821Z" fill="#9493B6"/>
<path d="M86.5607 27.8205C86.5607 27.8205 87.8621 31.3458 86.5607 31.9966C85.2593 32.6474 91.2239 31.9966 91.2239 31.9966L92.1969 30.7518C92.1969 30.7518 90.3039 29.1938 90.8461 26.699C91.3883 24.2042 86.5607 27.8205 86.5607 27.8205Z" fill="#F6D7B8"/>
<path d="M75.8789 63.1814C75.8789 63.1814 80.759 70.0691 79.9457 71.9673C79.1323 73.8655 79.5661 75.0587 77.9394 75.7095C76.3127 76.3603 75.8789 77.5534 77.2887 77.4992C78.6985 77.445 80.5421 77.0653 80.8132 76.5772C81.0844 76.0891 81.735 73.757 82.6568 73.4316C83.5786 73.1062 85.3138 71.8588 84.0667 70.3403C82.8195 68.8217 79.6771 63.2283 79.9198 62.6625C80.1626 62.0967 75.8789 63.1814 75.8789 63.1814Z" fill="#F6D7B8"/>
<path d="M86.0726 49.5679C86.0726 49.5679 75.987 50.2187 73.3843 52.6592C70.7815 55.0998 75.6617 64.2112 76.2039 64.3196C76.7461 64.4281 80.9756 63.9942 80.8129 62.8011C80.6502 61.6079 77.7764 56.7268 77.7764 56.7268C77.7764 56.7268 81.5178 55.3709 83.5783 55.0455C85.6388 54.7201 87.9162 53.2016 87.9162 53.2016L86.0726 49.5679Z" fill="#9493B6"/>
<path d="M81.463 48.0495C81.463 48.0495 81.1836 54.519 83.1439 54.2864C85.1041 54.0539 83.1439 49.6765 83.1439 49.6765L83.0896 47.8325L81.463 48.0495Z" fill="#F6D7B8"/>
<path d="M86.074 32.2676C86.074 32.2676 83.2544 31.4541 82.7122 33.6234C82.1699 35.7928 82.0073 43.2772 82.0073 43.2772L81.0312 49.2429C81.0312 49.2429 82.8206 48.7006 83.2002 48.9718L85.4776 46.0973L86.074 32.2676Z" fill="#6C63FF"/>
<path opacity="0.1" d="M86.074 32.2676C86.074 32.2676 83.2544 31.4541 82.7122 33.6234C82.1699 35.7928 82.0073 43.2772 82.0073 43.2772L81.0312 49.2429C81.0312 49.2429 82.8206 48.7006 83.2002 48.9718L85.4776 46.0973L86.074 32.2676Z" fill="black"/>
<path d="M89.9253 64.3369C89.9253 64.3369 91.8203 68.063 92.959 68.0088C94.0977 67.9546 95.1822 67.2495 95.7244 69.4731C96.2666 71.6967 95.616 71.1002 96.2666 72.4018C96.9173 73.7034 97.0258 75.9813 95.7786 76.5236C94.5315 77.0659 93.3928 77.1202 93.3386 76.5236C93.2844 75.927 94.423 75.927 93.1217 73.8119C91.8203 71.6967 89.0549 67.8461 87.9162 67.4665C86.7775 67.0868 89.9253 64.3369 89.9253 64.3369Z" fill="#F6D7B8"/>
<path d="M94.8537 47.3457C94.8537 47.3457 98.7578 53.8538 96.2093 55.752C93.6608 57.6502 86.0695 61.2839 86.0695 61.2839C86.0695 61.2839 90.1362 64.0499 90.3531 64.9719C90.57 65.8938 88.4011 68.3886 87.642 68.4429C86.8828 68.4971 84.6597 65.9481 82.2738 65.2973C79.888 64.6465 78.424 59.9823 81.0267 58.2468C83.6294 56.5113 86.0695 53.6369 86.0695 53.6369L85.3108 49.4614L94.8537 47.3457Z" fill="#9493B6"/>
<path d="M92.0338 25.9846C91.6961 26.6601 91.3648 26.3974 91.0206 26.9978C90.3323 28.1985 89.1808 29.3618 87.6435 29.3618C86.5362 29.3618 85.7248 28.7941 84.9418 28.0109C84.1588 27.2278 83.5909 26.0345 83.5909 24.9269C83.5909 23.8194 83.4833 22.0402 84.2663 21.257C85.0493 20.4739 88.9002 19.5684 90.0075 19.5684C92.3134 19.5684 93.0469 23.6206 92.0338 25.9846Z" fill="#F6D7B8"/>
<path d="M87.8611 31.6716C87.8611 31.6716 91.6025 30.0445 91.6025 29.8276C91.6025 29.6107 93.7714 30.3157 94.2594 30.7496C94.7474 31.1835 95.0186 31.1292 95.3439 31.997C95.6692 32.8647 93.7172 40.9456 93.7172 40.9456C93.7172 40.9456 94.8017 47.1826 95.3981 47.7791C95.9946 48.3757 90.5722 49.2435 90.5722 49.2435C90.5722 49.2435 86.9935 49.8943 86.397 50.1655C85.8006 50.4366 84.7161 50.8163 84.933 50.1655C85.1499 49.5146 86.0717 49.0265 84.4992 48.213C84.4992 48.213 85.0414 45.5555 84.4992 44.3624C83.957 43.1692 84.2713 39.5231 84.4992 36.8187C84.727 34.1143 86.397 31.4004 86.397 31.4004C86.397 31.4004 87.1019 31.997 87.8611 31.6716Z" fill="#6C63FF"/>
<path d="M89.0556 46.4775C89.0556 46.4775 84.8262 48.3538 83.5519 48.5275C82.2777 48.7011 79.6945 49.0622 80.5425 50.5451C81.3906 52.0281 82.2278 50.8895 83.0792 50.7975C84.5641 50.6371 85.8564 50.1112 85.8564 50.1112L90.357 48.213L89.0556 46.4775Z" fill="#F6D7B8"/>
<path opacity="0.1" d="M93.6061 31.506C93.6061 31.506 95.1679 30.7504 95.6017 33.4079C96.0355 36.0654 97.5538 44.4717 95.6017 45.7191C93.6497 46.9665 89.1491 48.9732 89.1491 48.9732C89.1491 48.9732 86.4922 47.1834 87.7393 46.5326C88.9864 45.8818 91.9687 44.0378 92.4025 43.387C92.8363 42.7362 93.2746 35.4718 92.5155 34.2787C91.7563 33.0855 93.6061 31.506 93.6061 31.506Z" fill="black"/>
<path d="M93.499 30.859C93.499 30.859 95.6679 30.7505 96.1017 33.408C96.5355 36.0655 98.0538 44.4718 96.1017 45.7192C94.1497 46.9666 89.6491 48.9733 89.6491 48.9733C89.6491 48.9733 86.9922 47.1835 88.2393 46.5327C89.4865 45.8819 92.4688 44.038 92.9025 43.3871C93.3363 42.7363 92.5772 35.957 91.8181 34.7639C91.0589 33.5707 93.499 30.859 93.499 30.859Z" fill="#6C63FF"/>
<path d="M90.3466 18.5548C92.0352 18.5548 92.8457 19.9061 93.386 21.257C94.0614 22.9456 91.6974 26.6604 92.0352 25.985C92.3728 25.3097 92.3729 24.6341 92.0352 24.2964C91.6974 23.9587 91.3597 24.2964 91.022 24.6341C90.8008 24.4912 90.5724 23.9668 90.3411 23.4425L89.6712 22.27C89.3334 22.6079 88.3203 22.9456 86.9694 22.9456C85.6186 22.9456 83.5923 23.6208 83.2546 23.2833C82.9169 22.9458 82.9169 20.581 84.6055 18.8931C86.294 17.2053 89.6712 17.2044 90.3466 18.5548Z" fill="#393F48"/>
</svg>
