<svg width="116" height="85" viewBox="0 0 116 85" fill="none" xmlns="http://www.w3.org/2000/svg">
<path d="M13.5161 84.1383C20.573 84.1383 26.2938 82.9533 26.2938 81.4915C26.2938 80.0297 20.573 78.8447 13.5161 78.8447C6.45909 78.8447 0.738281 80.0297 0.738281 81.4915C0.738281 82.9533 6.45909 84.1383 13.5161 84.1383Z" fill="#E6E6E6"/>
<path d="M7.99885 21.0297C10.4317 21.0297 12.4039 19.1868 12.4039 16.9135C12.4039 14.6402 10.4317 12.7974 7.99885 12.7974C5.56598 12.7974 3.59375 14.6402 3.59375 16.9135C3.59375 19.1868 5.56598 21.0297 7.99885 21.0297Z" fill="#2F2E41"/>
<path d="M20.8277 42.5557L21.9429 44.1131C21.9429 44.1131 27.2959 45.2256 25.2886 46.8943C23.2812 48.563 20.3816 45.3368 20.3816 45.3368L18.8203 43.3344L20.8277 42.5557Z" fill="#F6D7B8"/>
<path d="M15.0236 24.8672C15.0236 24.8672 16.4734 24.8672 16.8079 26.8696C17.1425 28.8721 17.4771 35.5469 17.4771 35.5469C17.4771 35.5469 22.161 41.6655 21.3803 42.4443C20.5997 43.223 19.7075 44.6692 19.1499 44.4467C18.5923 44.2242 13.7969 37.6606 13.7969 37.6606L15.0236 24.8672Z" fill="#E6E6E6"/>
<path d="M10.5661 19.1943C10.5661 19.1943 10.6776 23.533 12.0159 23.7555C13.3541 23.978 12.9081 25.4242 12.9081 25.4242C12.9081 25.4242 8.55873 27.9829 5.65917 25.4242L5.10156 24.0892C5.10156 24.0892 7.10895 22.643 6.21678 20.6406L10.5661 19.1943Z" fill="#F6D7B8"/>
<path d="M18.0343 45.8921C18.0343 45.8921 24.6141 58.1293 22.1606 61.9117C19.7072 65.6941 16.027 73.4814 15.4694 73.4814C14.9117 73.4814 11.7891 71.924 12.0122 70.9227C12.2352 69.9215 15.5809 62.4679 16.473 61.8005C17.3652 61.133 16.9191 59.353 16.8076 59.2418C16.6961 59.1305 13.0159 53.2344 13.0159 53.2344C13.0159 53.2344 13.1274 62.5792 12.6813 64.0254C12.2352 65.4716 12.7928 75.8176 12.2352 76.2626C11.6776 76.7076 9.11263 77.4863 8.66655 76.8188C8.22046 76.1514 6.88221 66.0279 7.77438 63.6917L6.10156 47.672L18.0343 45.8921Z" fill="#2F2E41"/>
<path d="M12.0167 75.5967L14.8048 80.7141C14.8048 80.7141 18.8195 83.6065 16.0315 84.0515C13.2435 84.4965 11.5707 83.384 11.5707 83.384L9.11719 81.604V76.4867L12.0167 75.5967Z" fill="#2F2E41"/>
<path d="M15.8059 72.7045L14.3562 76.1532C14.3562 76.1532 13.7986 77.5994 14.3562 77.9331C14.9138 78.2669 16.4751 80.2693 15.4714 80.4918C15.2695 80.5313 15.0643 80.5516 14.8585 80.5526C14.0227 80.5666 13.1928 80.4118 12.4185 80.0975C11.6443 79.7832 10.9418 79.3159 10.3533 78.7238L9.44922 77.8219C9.44922 77.8219 12.5462 70.7078 12.5032 70.7605C12.4603 70.8133 15.8059 72.7045 15.8059 72.7045Z" fill="#2F2E41"/>
<path d="M7.7761 21.8641C9.87022 21.8641 11.5678 20.1707 11.5678 18.0817C11.5678 15.9928 9.87022 14.2993 7.7761 14.2993C5.68199 14.2993 3.98438 15.9928 3.98438 18.0817C3.98438 20.1707 5.68199 21.8641 7.7761 21.8641Z" fill="#F6D7B8"/>
<path d="M5.60295 23.3653L6.77392 24.5333C6.77392 24.5333 10.3426 25.8683 12.0154 24.5333C12.0154 24.5333 11.4021 23.254 11.4021 23.3653C11.4021 23.4765 16.2532 24.1996 16.6993 26.2021C17.1454 28.2045 16.3648 31.6532 16.3648 31.6532C16.3648 31.6532 19.4874 46.3378 18.2606 46.6716C17.0339 47.0053 5.54718 49.7865 5.6587 47.6728C5.77022 45.5591 4.76653 36.8818 4.76653 36.8818L0.863281 29.4282C0.863281 29.4282 1.42089 26.9808 2.75914 26.2021C4.0974 25.4233 5.60295 23.3653 5.60295 23.3653Z" fill="#E6E6E6"/>
<path d="M10.5652 45.1143L12.015 46.0042C12.015 46.0042 17.5911 49.7866 14.6915 50.4541C11.7919 51.1216 10.1191 47.7842 10.1191 47.7842L9.00391 46.4492L10.5652 45.1143Z" fill="#F6D7B8"/>
<path opacity="0.1" d="M2.3116 28.7612L1.30791 29.7625C1.30791 29.7625 0.638779 39.1072 1.97704 40.9984C3.31529 42.8897 9.44897 48.007 9.78353 47.6733C10.1181 47.3396 12.237 45.6708 11.7909 45.4483C11.3448 45.2258 5.41381 39.0439 5.41381 39.0439L5.88029 30.4299L2.3116 28.7612Z" fill="black"/>
<path d="M1.86629 28.4277L0.862595 29.429C0.862595 29.429 0.193466 38.7737 1.53172 40.6649C2.86998 42.5561 9.00366 47.6735 9.33822 47.3398C9.67279 47.006 11.7917 45.3373 11.3456 45.1148C10.8995 44.8923 4.96849 38.7104 4.96849 38.7104L5.43497 30.0964L1.86629 28.4277Z" fill="#E6E6E6"/>
<path d="M9.3475 12.7091C9.3475 12.7091 10.6364 12.2415 12.394 13.2351L11.4566 13.4688C11.4566 13.4688 12.8627 13.5857 13.0385 15.4559H12.394C12.394 15.4559 12.8041 17.0923 12.394 17.5598L12.1304 17.0631L11.3687 18.5826L11.193 17.8228L10.8415 17.9397L10.6071 16.7124C10.6071 16.7124 10.0212 17.5891 9.55255 17.6475V16.8878C9.55255 16.8878 8.26365 18.3488 7.85354 18.2904L8.43941 17.4722L7.61919 17.6475L7.97071 17.0631L5.86159 17.6475L6.33028 17.0631L4.86561 17.5306L4.16257 17.8228C4.16257 17.8228 3.16659 15.5436 4.57268 13.9656C5.97876 12.3877 8.0293 12.037 9.3475 12.7091Z" fill="#2F2E41"/>
<path d="M115.51 7.03662H30.1211V61.5893H115.51V7.03662Z" fill="#E6E6E6"/>
<path d="M113.068 13.8789H32.5625V58.362H113.068V13.8789Z" fill="white"/>
<path d="M115.475 6.98828H30.0859V10.607H115.475V6.98828Z" fill="#6C63FF"/>
<path d="M32.7817 9.50938C33.1531 9.50938 33.4541 9.20909 33.4541 8.83867C33.4541 8.46825 33.1531 8.16797 32.7817 8.16797C32.4104 8.16797 32.1094 8.46825 32.1094 8.83867C32.1094 9.20909 32.4104 9.50938 32.7817 9.50938Z" fill="white"/>
<path d="M35.3325 9.50938C35.7038 9.50938 36.0049 9.20909 36.0049 8.83867C36.0049 8.46825 35.7038 8.16797 35.3325 8.16797C34.9612 8.16797 34.6602 8.46825 34.6602 8.83867C34.6602 9.20909 34.9612 9.50938 35.3325 9.50938Z" fill="white"/>
<path d="M37.8833 9.50938C38.2546 9.50938 38.5557 9.20909 38.5557 8.83867C38.5557 8.46825 38.2546 8.16797 37.8833 8.16797C37.512 8.16797 37.2109 8.46825 37.2109 8.83867C37.2109 9.20909 37.512 9.50938 37.8833 9.50938Z" fill="white"/>
<path d="M60.5651 18.4946H39.8789V53.7467H60.5651V18.4946Z" fill="#E6E6E6"/>
<path d="M81.3713 18.4946H64.1328V28.1982H81.3713V18.4946Z" fill="#6C63FF"/>
<path d="M81.3713 30.8999H64.1328V41.3404H81.3713V30.8999Z" fill="#E6E6E6"/>
<path d="M81.3713 44.0435H64.1328V53.747H81.3713V44.0435Z" fill="#E6E6E6"/>
<path d="M105.757 18.4946H85.0703V33.8573H105.757V18.4946Z" fill="#E6E6E6"/>
<path d="M105.757 38.3833H85.0703V53.746H105.757V38.3833Z" fill="#6C63FF"/>
<path d="M72.9341 22.8804L72.6641 22.8089L78.5569 0.695312H112.738V0.973925H78.7716L72.9341 22.8804Z" fill="#3F3D56"/>
<path d="M89.9393 68.1189H55.7578V67.8402H89.7246L95.5621 45.9336L95.8321 46.0052L89.9393 68.1189Z" fill="#3F3D56"/>
<path d="M52.9678 70.905C52.3877 70.905 51.8208 70.7334 51.3385 70.412C50.8562 70.0905 50.4803 69.6336 50.2584 69.0991C50.0364 68.5646 49.9784 67.9764 50.0915 67.4089C50.2047 66.8414 50.484 66.3202 50.8941 65.911C51.3042 65.5019 51.8268 65.2233 52.3956 65.1104C52.9645 64.9975 53.5542 65.0555 54.09 65.2769C54.6259 65.4983 55.0839 65.8733 55.4061 66.3543C55.7284 66.8354 55.9004 67.401 55.9004 67.9796C55.8995 68.7552 55.5902 69.4988 55.0405 70.0472C54.4907 70.5956 53.7453 70.9041 52.9678 70.905ZM52.9678 65.3328C52.443 65.3328 51.93 65.488 51.4937 65.7789C51.0573 66.0697 50.7172 66.4831 50.5164 66.9667C50.3156 67.4504 50.2631 67.9825 50.3654 68.496C50.4678 69.0094 50.7205 69.481 51.0916 69.8512C51.4627 70.2213 51.9354 70.4734 52.4501 70.5755C52.9648 70.6777 53.4983 70.6252 53.9831 70.4249C54.468 70.2246 54.8824 69.8853 55.1739 69.4501C55.4655 69.0148 55.6211 68.5031 55.6211 67.9796C55.6203 67.2779 55.3405 66.6051 54.8431 66.1089C54.3456 65.6127 53.6712 65.3336 52.9678 65.3328Z" fill="#3F3D56"/>
<path d="M52.9687 69.0936C53.5857 69.0936 54.0859 68.5947 54.0859 67.9792C54.0859 67.3637 53.5857 66.8647 52.9687 66.8647C52.3517 66.8647 51.8516 67.3637 51.8516 67.9792C51.8516 68.5947 52.3517 69.0936 52.9687 69.0936Z" fill="#6C63FF"/>
</svg>
