<svg width="87" height="84" viewBox="0 0 87 84" fill="none" xmlns="http://www.w3.org/2000/svg">
<path d="M49.6816 83.4618C69.8022 83.4618 86.1132 80.1996 86.1132 76.1755C86.1132 72.1514 69.8022 68.8892 49.6816 68.8892C29.561 68.8892 13.25 72.1514 13.25 76.1755C13.25 80.1996 29.561 83.4618 49.6816 83.4618Z" fill="#E6E6E6"/>
<path d="M68.5401 27.7949L61.2844 29.4583L58.2188 23.6656L64.4229 21.2388L68.5401 27.7949Z" fill="#2F2E41"/>
<path d="M51.1257 35.4704L50.1214 33.5059C50.0438 33.3542 50.0001 33.1874 49.9932 33.0171C49.9863 32.8468 50.0164 32.677 50.0814 32.5195C50.1464 32.362 50.2449 32.2205 50.3699 32.1048C50.4948 31.9892 50.6434 31.9021 50.8053 31.8496C50.9685 31.7967 51.1412 31.7803 51.3114 31.8014C51.4816 31.8226 51.6452 31.8808 51.7905 31.972C51.9358 32.0632 52.0595 32.1852 52.1527 32.3294C52.246 32.4737 52.3066 32.6366 52.3303 32.8067L52.6036 34.769L55.1705 38.8215V36.4056L58.0485 36.7173L57.6456 41.0228C57.6254 41.2387 57.5623 41.4483 57.46 41.6394C57.3577 41.8305 57.2182 41.9991 57.0498 42.1354C56.8665 42.2837 56.6531 42.3903 56.4245 42.4476C56.1959 42.505 55.9576 42.5117 55.7261 42.4674C55.4946 42.4231 55.2756 42.3288 55.0842 42.1911C54.8928 42.0533 54.7336 41.8755 54.6178 41.6698L51.1257 35.4704Z" fill="#F6D7B8"/>
<path d="M72.9064 74.5141L70.6507 74.6699L69.1727 60.7203L60.6165 52.3037L59.7608 74.6699H57.1939C55.6284 60.9372 51.8739 46.321 56.7272 42.7961L58.0496 40.5361L66.0614 42.0168L66.3725 45.1341L67.811 48.7551L73.2301 57.8766C73.5769 58.4603 73.7423 59.1342 73.7055 59.8124L72.9064 74.5141Z" fill="#2F2E41"/>
<path d="M58.6415 80.6713C58.3872 80.6713 58.1357 80.6187 57.9026 80.5169C57.6696 80.4151 57.46 80.2662 57.287 80.0795C57.114 79.8929 56.9812 79.6725 56.8971 79.4321C56.813 79.1917 56.7792 78.9365 56.798 78.6825L57.1177 74.3589C58.0647 73.3867 58.9432 73.5138 59.7624 74.5927L60.4609 78.4921C60.5087 78.7587 60.4975 79.0327 60.4281 79.2945C60.3587 79.5563 60.2329 79.7997 60.0594 80.0075C59.8859 80.2153 59.669 80.3825 59.424 80.4972C59.179 80.6118 58.9119 80.6713 58.6415 80.6713Z" fill="#6C63FF"/>
<path d="M73.739 81.6053C73.5718 81.6053 73.4064 81.57 73.2537 81.5018C73.101 81.4335 72.9643 81.3339 72.8526 81.2092L68.5606 76.4212C68.4394 76.286 68.347 76.1274 68.2889 75.9552C68.2309 75.783 68.2085 75.6008 68.2231 75.4196C68.2377 75.2385 68.2889 75.0622 68.3737 74.9015C68.4586 74.7409 68.5752 74.5992 68.7165 74.4852L70.4193 73.1108L72.9084 74.2019L74.8681 80.0306C74.9285 80.2101 74.9453 80.4015 74.9173 80.5889C74.8892 80.7762 74.817 80.9542 74.7067 81.1081C74.5963 81.2619 74.451 81.3873 74.2828 81.4737C74.1145 81.5602 73.9281 81.6053 73.739 81.6053Z" fill="#6C63FF"/>
<path d="M62.619 27.4147C64.1819 27.4147 65.4489 26.1453 65.4489 24.5794C65.4489 23.0135 64.1819 21.7441 62.619 21.7441C61.0561 21.7441 59.7891 23.0135 59.7891 24.5794C59.7891 26.1453 61.0561 27.4147 62.619 27.4147Z" fill="#F6D7B8"/>
<path d="M64.2347 36.6787H60.6566L59.8398 29.548C60.7107 28.3182 60.9939 27.0333 60.6566 25.6904H64.2347C63.683 26.8965 63.7777 28.1039 65.207 29.3142L64.2347 36.6787Z" fill="#F6D7B8"/>
<path d="M65.9073 42.172C63.1043 43.2025 60.4763 42.884 58.0511 41.003C57.9926 38.7509 57.4435 35.9567 56.6749 32.9199C56.5596 32.4646 56.5972 31.9839 56.7818 31.5522C56.9665 31.1204 57.288 30.7616 57.6965 30.5312L59.9957 29.2355L62.5626 35.3141L64.8961 29.0796L66.4478 29.4251C66.8141 29.5071 67.1448 29.7039 67.3918 29.9869C67.6389 30.27 67.7895 30.6246 67.8218 30.9992C68.2285 35.623 68.1069 39.792 65.9073 42.172Z" fill="#E6E6E6"/>
<path d="M58.3632 38.2762C56.7399 38.4336 55.5739 37.7617 54.7852 36.4059L55.3296 33.908C55.3296 33.0953 55.5881 32.3039 56.0676 31.6484C56.5471 30.993 57.2226 30.5077 57.996 30.263L58.2855 30.1714L58.3632 38.2762Z" fill="#E6E6E6"/>
<path d="M70.0303 49.4198L70.415 51.1539C70.4588 51.3514 70.454 51.5567 70.4009 51.752C70.3478 51.9472 70.2481 52.1266 70.1103 52.2746C69.9725 52.4226 69.8009 52.5348 69.6102 52.6015C69.4194 52.6681 69.2154 52.6873 69.0156 52.6573C68.8469 52.6319 68.6851 52.572 68.5404 52.4814C68.3957 52.3907 68.2712 52.2712 68.1745 52.1303C68.0779 51.9893 68.0112 51.83 67.9787 51.6622C67.9461 51.4943 67.9484 51.3216 67.9853 51.1546L68.4053 49.2555L67.1523 37.1067L69.6414 36.0156L70.0303 49.4198Z" fill="#F6D7B8"/>
<path d="M66.7656 37.6527C68.3889 37.81 69.5549 37.1382 70.3437 35.7823L69.7992 33.2844C69.7992 32.4718 69.5407 31.6803 69.0613 31.0249C68.5818 30.3694 67.9063 29.8841 67.1329 29.6394L66.8434 29.5479L66.7656 37.6527Z" fill="#E6E6E6"/>
<path d="M64.1597 20.3462C64.1597 20.3462 65.767 20.6491 66.1387 22.6575C66.1968 22.9962 66.2074 23.3414 66.1702 23.683C66.1331 24.0696 66.1869 24.8862 67.0247 25.8476C67.5714 26.4712 68.0808 27.1266 68.5503 27.8105L66.8708 28.2585L66.1204 25.4706C65.7566 24.119 65.1961 22.8284 64.457 21.6403L64.4416 21.6155C64.4416 21.6155 63.8838 23.1088 62.3887 23.3135L62.8497 22.7054C62.8497 22.7054 61.1019 23.7177 60.1117 24.0269C59.9987 24.0622 59.8974 24.1278 59.8188 24.2165C59.7402 24.3052 59.6873 24.4137 59.6657 24.5303C59.6441 24.6469 59.6547 24.7672 59.6963 24.8782C59.7378 24.9893 59.8089 25.0868 59.9017 25.1604C59.9088 25.1659 59.9159 25.1715 59.9232 25.177C60.6515 25.7312 62.1374 27.0537 61.5503 28.333C60.9633 29.6123 61.6479 29.8455 61.6479 29.8455L60.3856 29.3644L59.8078 29.1165L59.8662 29.5445L57.0458 29.6037C57.0458 29.6037 56.2837 29.5991 57.6374 27.5608C57.6374 27.5608 57.9641 26.7966 57.6959 26.2127C57.4807 25.7705 57.3736 25.2834 57.3833 24.7916C57.4686 22.7367 58.3326 18.5561 64.1597 20.3462Z" fill="#2F2E41"/>
<path d="M53.2318 27.7958L52.831 27.6612L56.5099 16.6583C56.7895 15.822 56.902 14.9387 56.8409 14.0589C56.7798 13.1791 56.5463 12.3199 56.1538 11.5305C55.7613 10.741 55.2174 10.0368 54.5533 9.45795C53.8891 8.87909 53.1176 8.43697 52.2829 8.15683H52.2829L52.2829 8.15682L29.0155 0.347823C27.3298 -0.21796 25.4887 -0.0896372 23.8974 0.704562C22.306 1.49876 21.0948 2.89378 20.5301 4.58273L20.5301 4.58275L0.347167 64.9457C-0.21755 66.6347 -0.0894672 68.4792 0.703239 70.0735C1.49595 71.6679 2.88834 72.8814 4.57411 73.4472H4.57413L27.8415 81.2562C29.5273 81.822 31.3683 81.6937 32.9597 80.8995C34.551 80.1053 35.7623 78.7102 36.327 77.0213L36.327 77.0213L50.2122 35.4933L50.6131 35.6279L53.2318 27.7958Z" fill="#3F3D56"/>
<path d="M51.9843 9.89933L48.9471 8.88C48.9721 9.26995 48.901 9.66007 48.74 10.016C48.579 10.3719 48.3331 10.6827 48.024 10.921C47.7149 11.1593 47.3521 11.3177 46.9674 11.3824C46.5828 11.4471 46.1882 11.4161 45.8184 11.292L32.4888 6.8183C32.119 6.69415 31.7853 6.4808 31.5172 6.19702C31.2491 5.91325 31.0547 5.56777 30.9513 5.19101C30.8478 4.81426 30.8384 4.4178 30.9239 4.03655C31.0094 3.6553 31.1872 3.30097 31.4416 3.00478L28.6049 2.05272C27.346 1.6302 25.9711 1.72603 24.7827 2.31913C23.5943 2.91223 22.6897 3.95401 22.268 5.2153L2.11473 65.4897C1.693 66.751 1.78866 68.1285 2.38064 69.3191C2.97263 70.5098 4.01245 71.416 5.27137 71.8385H5.27138L28.6508 79.6851C29.2741 79.8944 29.9325 79.9785 30.5883 79.9328C31.2442 79.8871 31.8846 79.7124 32.473 79.4187C33.0614 79.1251 33.5864 78.7181 34.0178 78.2212C34.4493 77.7243 34.7789 77.1471 34.9877 76.5226L55.1409 16.2481C55.3498 15.6236 55.4338 14.964 55.3881 14.3069C55.3425 13.6499 55.1682 13.0083 54.875 12.4187C54.5819 11.8292 54.1758 11.3033 53.6798 10.871C53.1838 10.4387 52.6077 10.1085 51.9843 9.89933L51.9843 9.89933Z" fill="white"/>
<path d="M46.1382 30.1213L21.1878 21.7474C21.0654 21.7062 20.9643 21.618 20.9066 21.5021C20.849 21.3863 20.8397 21.2522 20.8806 21.1295L22.9538 14.9287C22.995 14.806 23.0831 14.7047 23.1987 14.647C23.3144 14.5893 23.4481 14.5799 23.5707 14.6208L48.521 22.9947C48.6435 23.0359 48.7446 23.1242 48.8022 23.24C48.8598 23.3559 48.8692 23.4899 48.8283 23.6127L46.755 29.8135C46.7138 29.9361 46.6258 30.0374 46.5101 30.0952C46.3945 30.1529 46.2607 30.1623 46.1382 30.1213ZM23.5088 14.806C23.4352 14.7814 23.355 14.787 23.2856 14.8217C23.2162 14.8563 23.1634 14.9171 23.1387 14.9907L21.0654 21.1915C21.0408 21.2652 21.0465 21.3456 21.081 21.4151C21.1156 21.4846 21.1763 21.5375 21.2497 21.5623L46.2001 29.9361C46.2736 29.9607 46.3539 29.9551 46.4233 29.9205C46.4927 29.8858 46.5455 29.825 46.5702 29.7514L48.6435 23.5506C48.668 23.477 48.6624 23.3966 48.6278 23.327C48.5933 23.2575 48.5326 23.2046 48.4591 23.1798L23.5088 14.806Z" fill="#3F3D56"/>
<path d="M37.9351 54.6554L12.9847 46.2815C12.8622 46.2402 12.7611 46.152 12.7035 46.0362C12.6459 45.9203 12.6365 45.7863 12.6774 45.6635L16.5152 34.1855C16.5564 34.0628 16.6444 33.9615 16.7601 33.9038C16.8757 33.8461 17.0095 33.8367 17.132 33.8777L42.0824 42.2515C42.2049 42.2928 42.306 42.381 42.3636 42.4969C42.4212 42.6127 42.4306 42.7467 42.3897 42.8695L38.5519 54.3475C38.5107 54.4702 38.4227 54.5715 38.307 54.6292C38.1914 54.6869 38.0576 54.6963 37.9351 54.6554ZM17.0701 34.0628C16.9966 34.0382 16.9163 34.0439 16.8469 34.0785C16.7776 34.1131 16.7247 34.1739 16.7 34.2475L12.8622 45.7255C12.8377 45.7992 12.8433 45.8796 12.8779 45.9491C12.9125 46.0187 12.9731 46.0716 13.0466 46.0963L37.997 54.4702C38.0705 54.4948 38.1508 54.4891 38.2202 54.4545C38.2895 54.4199 38.3424 54.3591 38.3671 54.2855L42.2049 42.8075C42.2294 42.7338 42.2238 42.6534 42.1892 42.5839C42.1546 42.5144 42.094 42.4614 42.0205 42.4367L17.0701 34.0628Z" fill="#3F3D56"/>
<path d="M42.7339 39.6874L31.6449 35.9657C31.5224 35.9245 31.4213 35.8362 31.3637 35.7204C31.3061 35.6045 31.2967 35.4705 31.3376 35.3477L33.4109 29.1469C33.452 29.0243 33.5401 28.923 33.6558 28.8652C33.7714 28.8075 33.9051 28.7981 34.0277 28.8391L45.1168 32.5608C45.2392 32.6021 45.3403 32.6903 45.3979 32.8062C45.4556 32.922 45.4649 33.056 45.424 33.1788L43.3508 39.3796C43.3096 39.5023 43.2215 39.6036 43.1059 39.6613C42.9902 39.719 42.8565 39.7284 42.7339 39.6874ZM33.9658 29.0243C33.8923 28.9997 33.812 29.0053 33.7426 29.0399C33.6732 29.0746 33.6204 29.1354 33.5957 29.209L31.5224 35.4098C31.4979 35.4834 31.5035 35.5638 31.538 35.6333C31.5726 35.7029 31.6333 35.7558 31.7068 35.7805L42.7958 39.5023C42.8694 39.5269 42.9496 39.5212 43.019 39.4866C43.0884 39.452 43.1412 39.3912 43.1659 39.3176L45.2392 33.1168C45.2638 33.0431 45.2581 32.9627 45.2236 32.8932C45.189 32.8237 45.1283 32.7707 45.0549 32.746L33.9658 29.0243Z" fill="#E6E6E6"/>
<path d="M19.0582 65.0021L7.96907 61.2803C7.84662 61.2391 7.7455 61.1509 7.6879 61.035C7.6303 60.9192 7.62091 60.7851 7.6618 60.6624L11.5305 49.0918C11.5717 48.9691 11.6598 48.8678 11.7754 48.8101C11.891 48.7524 12.0248 48.743 12.1474 48.7839L23.2364 52.5056C23.3589 52.5469 23.46 52.6351 23.5176 52.751C23.5752 52.8668 23.5846 53.0008 23.5437 53.1236L19.675 64.6942C19.6338 64.8169 19.5457 64.9182 19.4301 64.9759C19.3145 65.0336 19.1807 65.043 19.0582 65.0021ZM12.0854 48.9691C12.0119 48.9445 11.9317 48.9501 11.8623 48.9848C11.7929 49.0194 11.74 49.0802 11.7153 49.1538L7.84662 60.7244C7.82208 60.7981 7.82771 60.8785 7.86227 60.948C7.89683 61.0175 7.95751 61.0704 8.03098 61.0952L19.1201 64.8169C19.1936 64.8415 19.2739 64.8359 19.3432 64.8012C19.4126 64.7666 19.4655 64.7058 19.4902 64.6322L23.3589 53.0616C23.3834 52.9879 23.3778 52.9075 23.3432 52.838C23.3087 52.7685 23.248 52.7156 23.1745 52.6908L12.0854 48.9691Z" fill="#E6E6E6"/>
<path d="M32.7339 69.5919L21.6448 65.8702C21.5224 65.8289 21.4213 65.7407 21.3637 65.6248C21.3061 65.509 21.2967 65.375 21.3376 65.2522L25.2063 53.6816C25.2475 53.5589 25.3356 53.4576 25.4512 53.3999C25.5668 53.3422 25.7006 53.3328 25.8231 53.3738L36.9122 57.0955C37.0347 57.1367 37.1358 57.225 37.1934 57.3408C37.251 57.4567 37.2604 57.5907 37.2195 57.7135L33.3508 69.2841C33.3096 69.4067 33.2215 69.5081 33.1059 69.5658C32.9902 69.6235 32.8565 69.6329 32.7339 69.5919ZM25.7612 53.5589C25.6877 53.5343 25.6074 53.54 25.5381 53.5746C25.4687 53.6092 25.4158 53.67 25.3911 53.7436L21.5224 65.3142C21.4979 65.3879 21.5035 65.4683 21.538 65.5378C21.5726 65.6073 21.6333 65.6603 21.7068 65.685L32.7959 69.4067C32.8694 69.4313 32.9496 69.4257 33.019 69.3911C33.0884 69.3564 33.1412 69.2956 33.1659 69.222L37.0347 57.6514C37.0592 57.5778 37.0536 57.4974 37.019 57.4278C36.9845 57.3583 36.9238 57.3054 36.8503 57.2806L25.7612 53.5589Z" fill="#E6E6E6"/>
<path d="M24.2315 39.3843C24.1904 39.3701 24.1468 39.3642 24.1034 39.3668C24.06 39.3695 24.0175 39.3808 23.9784 39.3999C23.9393 39.4191 23.9044 39.4458 23.8756 39.4785C23.8469 39.5112 23.8248 39.5492 23.8107 39.5905C23.7967 39.6317 23.7909 39.6754 23.7936 39.7189C23.7964 39.7624 23.8078 39.8049 23.827 39.844C23.8462 39.8831 23.8729 39.9181 23.9056 39.9468C23.9383 39.9756 23.9764 39.9976 24.0176 40.0116L24.0214 40.0128L38.8094 44.976C38.8925 45.0044 38.9834 44.9986 39.0621 44.9598C39.1409 44.921 39.201 44.8525 39.2293 44.7693C39.2577 44.6861 39.2519 44.595 39.2132 44.5162C39.1745 44.4373 39.1061 44.377 39.023 44.3486L39.0196 44.3475L24.2315 39.3843Z" fill="#E6E6E6"/>
<path d="M23.6025 41.27C23.5614 41.2558 23.5179 41.2499 23.4745 41.2526C23.431 41.2553 23.3886 41.2665 23.3495 41.2857C23.3104 41.3048 23.2755 41.3315 23.2467 41.3642C23.2179 41.3969 23.1959 41.435 23.1818 41.4762C23.1678 41.5175 23.162 41.5611 23.1647 41.6046C23.1675 41.6481 23.1788 41.6906 23.1981 41.7297C23.2173 41.7688 23.244 41.8038 23.2767 41.8325C23.3094 41.8613 23.3474 41.8833 23.3886 41.8973L23.3924 41.8986L29.7557 44.0342C29.8388 44.0616 29.9292 44.0548 30.0074 44.0156C30.0855 43.9763 30.1449 43.9076 30.1727 43.8246C30.2004 43.7416 30.1943 43.6509 30.1555 43.5724C30.1168 43.4939 30.0486 43.434 29.9659 43.4057L23.6025 41.27Z" fill="#E6E6E6"/>
<path d="M16.8005 42.3415C16.5619 42.2614 16.3206 42.3372 16.2626 42.5105C16.2047 42.6838 16.3517 42.89 16.5903 42.97L36.9933 49.8177C37.232 49.8978 37.4733 49.822 37.5312 49.6487C37.5891 49.4754 37.4421 49.2692 37.2035 49.1892L16.8005 42.3415Z" fill="#E6E6E6"/>
<path d="M16.1716 44.2277C15.933 44.1476 15.6916 44.2235 15.6337 44.3967C15.5758 44.57 15.7228 44.7762 15.9614 44.8563L36.3644 51.7039C36.603 51.784 36.8444 51.7082 36.9023 51.5349C36.9602 51.3617 36.8132 51.1555 36.5746 51.0754L16.1716 44.2277Z" fill="#E6E6E6"/>
<path d="M31.1001 19.4489C31.017 19.4209 30.9263 19.4272 30.8478 19.4662C30.7693 19.5053 30.7094 19.5739 30.6814 19.6572C30.6534 19.7404 30.6595 19.8313 30.6984 19.91C30.7372 19.9887 30.8057 20.0488 30.8887 20.077L30.89 20.0774L45.678 25.0406C45.7611 25.0679 45.8515 25.0612 45.9296 25.0219C46.0078 24.9827 46.0672 24.914 46.0949 24.831C46.1227 24.748 46.1165 24.6573 46.0778 24.5788C46.0391 24.5003 45.9709 24.4404 45.8882 24.4121L31.1001 19.4489Z" fill="#E6E6E6"/>
<path d="M30.4722 21.3344C30.431 21.3205 30.3875 21.3147 30.3441 21.3176C30.3007 21.3205 30.2583 21.3319 30.2193 21.3513C30.1803 21.3706 30.1455 21.3974 30.1169 21.4302C30.0883 21.463 30.0664 21.5011 30.0525 21.5424C30.0386 21.5837 30.033 21.6273 30.0359 21.6708C30.0389 21.7143 30.0503 21.7567 30.0697 21.7957C30.089 21.8348 30.1158 21.8696 30.1486 21.8982C30.1814 21.9268 30.2195 21.9487 30.2607 21.9626L30.262 21.963L36.6254 24.0987C36.7084 24.126 36.7989 24.1193 36.877 24.08C36.9551 24.0407 37.0145 23.9721 37.0423 23.889C37.07 23.806 37.0639 23.7153 37.0251 23.6369C36.9864 23.5584 36.9182 23.4984 36.8355 23.4701L30.4722 21.3344Z" fill="#E6E6E6"/>
<path d="M29.0471 35.0949L18.6445 31.6036L22.513 28.1769C22.5824 28.1155 22.6666 28.0735 22.7573 28.055C22.848 28.0366 22.942 28.0423 23.0297 28.0718C23.1175 28.1013 23.1959 28.1533 23.2572 28.2228C23.3185 28.2923 23.3605 28.3767 23.3789 28.4675L23.8179 30.6333L26.6278 28.1444C26.7146 28.0675 26.8201 28.0149 26.9337 27.9917C27.0472 27.9686 27.1648 27.9759 27.2747 28.0128C27.3846 28.0496 27.4828 28.1148 27.5596 28.2018C27.6363 28.2888 27.6889 28.3945 27.7119 28.5082L29.0471 35.0949ZM19.0265 31.5258L28.7889 34.8023L27.5209 28.5471C27.5046 28.4669 27.4676 28.3924 27.4135 28.3312C27.3595 28.2699 27.2902 28.2239 27.2128 28.1979C27.1354 28.1719 27.0525 28.1668 26.9725 28.1831C26.8925 28.1994 26.8181 28.2365 26.757 28.2907L23.6941 31.0036L23.1879 28.5064C23.1763 28.4491 23.1498 28.3959 23.1112 28.3521C23.0726 28.3084 23.0231 28.2755 22.9678 28.257C22.9125 28.2384 22.8533 28.2348 22.7961 28.2464C22.739 28.258 22.6859 28.2845 22.6422 28.3233L19.0265 31.5258Z" fill="#E6E6E6"/>
<path d="M42.3557 39.5616L31.9531 36.0704L35.8216 32.6437C35.891 32.5823 35.9752 32.5403 36.0659 32.5218C36.1566 32.5034 36.2505 32.5091 36.3383 32.5386C36.4261 32.5681 36.5045 32.6201 36.5658 32.6896C36.6271 32.7591 36.6691 32.8435 36.6875 32.9343L37.1265 35.1001L39.9364 32.6112C40.0232 32.5343 40.1287 32.4817 40.2423 32.4585C40.3558 32.4354 40.4734 32.4427 40.5833 32.4796C40.6932 32.5164 40.7914 32.5816 40.8682 32.6686C40.9449 32.7556 40.9974 32.8613 41.0205 32.975L42.3557 39.5616ZM32.3351 35.9926L42.0975 39.2691L40.8295 33.0139C40.8132 32.9337 40.7762 32.8592 40.7221 32.798C40.668 32.7367 40.5988 32.6907 40.5214 32.6647C40.444 32.6387 40.3611 32.6336 40.2811 32.6499C40.2011 32.6662 40.1267 32.7033 40.0656 32.7575L37.0027 35.4704L36.4965 32.9732C36.4849 32.9159 36.4584 32.8627 36.4198 32.8189C36.3812 32.7751 36.3317 32.7423 36.2764 32.7238C36.2211 32.7052 36.1619 32.7015 36.1047 32.7132C36.0476 32.7248 35.9945 32.7513 35.9508 32.79L32.3351 35.9926Z" fill="#E6E6E6"/>
<path d="M29.0582 35.0976L17.9691 31.3759C17.8466 31.3346 17.7455 31.2464 17.6879 31.1305C17.6303 31.0147 17.6209 30.8807 17.6618 30.7579L19.7351 24.5571C19.7763 24.4344 19.8643 24.3331 19.98 24.2754C20.0956 24.2177 20.2294 24.2083 20.3519 24.2493L31.441 27.971C31.5635 28.0122 31.6646 28.1005 31.7222 28.2163C31.7798 28.3322 31.7892 28.4662 31.7483 28.589L29.675 34.7897C29.6338 34.9124 29.5457 35.0137 29.4301 35.0714C29.3145 35.1292 29.1807 35.1386 29.0582 35.0976ZM20.29 24.4344C20.2165 24.4098 20.1362 24.4155 20.0668 24.4501C19.9975 24.4847 19.9446 24.5455 19.9199 24.6191L17.8466 30.8199C17.8221 30.8936 17.8277 30.974 17.8623 31.0435C17.8968 31.113 17.9575 31.1659 18.031 31.1907L29.1201 34.9124C29.1936 34.937 29.2739 34.9314 29.3432 34.8967C29.4126 34.8621 29.4655 34.8013 29.4902 34.7277L31.5635 28.5269C31.588 28.4533 31.5824 28.3728 31.5478 28.3033C31.5132 28.2338 31.4526 28.1809 31.3791 28.1561L20.29 24.4344Z" fill="#E6E6E6"/>
<path d="M13.7104 51.9623C13.6274 51.9342 13.5366 51.9402 13.458 51.979C13.3794 52.0178 13.3194 52.0863 13.2911 52.1694C13.2629 52.2525 13.2687 52.3434 13.3072 52.4222C13.3458 52.5011 13.4141 52.5613 13.497 52.5898L13.5002 52.5909L19.8636 54.7266C19.9048 54.7406 19.9485 54.7464 19.992 54.7436C20.0355 54.7407 20.078 54.7292 20.117 54.7099C20.1561 54.6905 20.191 54.6636 20.2196 54.6307C20.2483 54.5978 20.2701 54.5595 20.284 54.5181C20.2978 54.4767 20.3034 54.433 20.3003 54.3894C20.2972 54.3458 20.2856 54.3033 20.266 54.2643C20.2465 54.2252 20.2194 54.1904 20.1864 54.1619C20.1534 54.1334 20.1151 54.1117 20.0737 54.098L13.7104 51.9623Z" fill="#E6E6E6"/>
<path d="M13.0946 53.8145C13.0116 53.7871 12.921 53.7937 12.8428 53.833C12.7646 53.8722 12.7051 53.9409 12.6773 54.024C12.6495 54.1071 12.6557 54.1979 12.6945 54.2764C12.7334 54.355 12.8017 54.4149 12.8845 54.4431L19.2478 56.5788C19.3309 56.6063 19.4215 56.5996 19.4997 56.5604C19.5779 56.5211 19.6374 56.4524 19.6652 56.3693C19.693 56.2862 19.6868 56.1955 19.648 56.1169C19.6091 56.0384 19.5408 55.9784 19.458 55.9502L13.0946 53.8145Z" fill="#E6E6E6"/>
<path d="M14.3115 60.7549C13.921 60.6239 13.5781 60.3797 13.326 60.0534C13.074 59.727 12.9242 59.3331 12.8956 58.9215C12.8671 58.5099 12.961 58.099 13.1655 57.7408C13.3699 57.3827 13.6759 57.0933 14.0445 56.9093C14.4131 56.7253 14.828 56.655 15.2365 56.7072C15.645 56.7594 16.029 56.9318 16.3397 57.2027C16.6504 57.4735 16.874 57.8305 16.9822 58.2287C17.0904 58.6268 17.0783 59.0481 16.9475 59.4394C16.7715 59.9637 16.3952 60.3966 15.901 60.6432C15.4069 60.8899 14.8352 60.93 14.3115 60.7549ZM15.5725 56.9836C15.2185 56.8648 14.8374 56.8539 14.4772 56.9521C14.117 57.0504 13.794 57.2534 13.5489 57.5356C13.3039 57.8178 13.148 58.1664 13.1007 58.5374C13.0535 58.9084 13.1171 59.2851 13.2835 59.6199C13.45 59.9546 13.7118 60.2324 14.0358 60.4181C14.3599 60.6038 14.7316 60.6891 15.104 60.6631C15.4764 60.6372 15.8327 60.5012 16.128 60.2723C16.4232 60.0434 16.6441 59.732 16.7627 59.3774C16.9211 58.9018 16.8847 58.3827 16.6616 57.934C16.4385 57.4852 16.0468 57.1434 15.5725 56.9836H15.5725Z" fill="#E6E6E6"/>
<path d="M31.1682 66.4131C31.2093 66.4272 31.2529 66.4331 31.2963 66.4303C31.3397 66.4276 31.3821 66.4163 31.4212 66.3971C31.4602 66.3779 31.4951 66.3512 31.5238 66.3185C31.5526 66.2858 31.5746 66.2477 31.5886 66.2064C31.6026 66.1652 31.6084 66.1216 31.6056 66.0781C31.6028 66.0346 31.5914 65.9921 31.5722 65.953C31.553 65.9139 31.5263 65.879 31.4936 65.8503C31.4608 65.8216 31.4228 65.7996 31.3816 65.7856L31.3784 65.7845L25.015 63.6488C24.932 63.6207 24.8413 63.6267 24.7627 63.6655C24.6841 63.7043 24.6241 63.7728 24.5958 63.8559C24.5675 63.939 24.5733 64.0299 24.6119 64.1087C24.6505 64.1875 24.7187 64.2478 24.8016 64.2763L24.8048 64.2774L31.1682 66.4131Z" fill="#E6E6E6"/>
<path d="M31.7894 64.5606C31.8306 64.5746 31.8743 64.5804 31.9178 64.5776C31.9612 64.5747 32.0037 64.5633 32.0428 64.5439C32.0819 64.5245 32.1167 64.4976 32.1454 64.4647C32.174 64.4318 32.1959 64.3935 32.2098 64.3521C32.2236 64.3107 32.2291 64.267 32.2261 64.2234C32.223 64.1798 32.2113 64.1373 32.1918 64.0983C32.1723 64.0592 32.1452 64.0244 32.1122 63.9959C32.0792 63.9674 32.0409 63.9457 31.9995 63.932L25.6362 61.7963C25.5532 61.7682 25.4624 61.7741 25.3838 61.813C25.3052 61.8518 25.2452 61.9202 25.2169 62.0033C25.1886 62.0865 25.1944 62.1774 25.233 62.2562C25.2716 62.3351 25.3399 62.3953 25.4228 62.4238L25.426 62.4249L31.7894 64.5606Z" fill="#E6E6E6"/>
<path d="M30.5719 57.6201C30.9624 57.7512 31.3054 57.9953 31.5574 58.3217C31.8095 58.648 31.9592 59.0419 31.9878 59.4536C32.0164 59.8652 31.9225 60.2761 31.718 60.6342C31.5135 60.9924 31.2076 61.2818 30.839 61.4658C30.4703 61.6497 30.0555 61.7201 29.647 61.6679C29.2384 61.6156 28.8545 61.4432 28.5438 61.1724C28.233 60.9016 28.0094 60.5445 27.9013 60.1464C27.7931 59.7483 27.8051 59.3269 27.936 58.9357C28.1119 58.4114 28.4883 57.9784 28.9824 57.7318C29.4766 57.4852 30.0482 57.445 30.5719 57.6201ZM29.311 61.3914C29.6649 61.5102 30.0461 61.5212 30.4063 61.4229C30.7665 61.3247 31.0895 61.1216 31.3345 60.8395C31.5795 60.5573 31.7355 60.2086 31.7827 59.8376C31.83 59.4666 31.7664 59.0899 31.5999 58.7552C31.4335 58.4204 31.1717 58.1426 30.8476 57.9569C30.5236 57.7712 30.1519 57.6859 29.7795 57.7119C29.4071 57.7379 29.0507 57.8739 28.7555 58.1027C28.4602 58.3316 28.2394 58.6431 28.1208 58.9977C27.9624 59.4733 27.9987 59.9923 28.2219 60.4411C28.445 60.8898 28.8366 61.2316 29.311 61.3914Z" fill="#E6E6E6"/>
<path d="M25.9494 17.2905L23.7031 18.5122L24.9507 20.7472L25.4575 20.4674L24.519 18.7606L26.2365 17.8124L25.9494 17.2905Z" fill="#6C63FF"/>
<path d="M27.3795 17.7056L28.627 19.9405L26.3808 21.1622L26.1016 20.6544L27.805 19.714L26.8585 17.9931L27.3795 17.7056Z" fill="#6C63FF"/>
<path d="M19.4963 37.3105L17.25 38.5323L18.4975 40.7672L19.0044 40.4874L18.0659 38.7807L19.7834 37.8325L19.4963 37.3105Z" fill="#6C63FF"/>
<path d="M20.9303 37.7256L22.1778 39.9605L19.9316 41.1822L19.6523 40.6744L21.3558 39.734L20.4093 38.0131L20.9303 37.7256Z" fill="#6C63FF"/>
</svg>
